{"title":"Fast and Furious 7 with eng subtitles","uid":11835159,"size":1910278129,"categoryP":"video","categoryS":"movies","magnet":"?xt=urn:btih:36e1bf1a8d245fc8e2b5d0d6bb3adcf5d940cc21&amp;dn=Fast+and+Furious+7+with+eng+subtitles&amp;tr=udp%3A%2F%2Ftracker.openbittorrent.com%3A80&amp;tr=udp%3A%2F%2Fopen.demonii.com%3A1337&amp;tr=udp%3A%2F%2Ftracker.coppersurfer.tk%3A6969&amp;tr=udp%3A%2F%2Fexodus.desync.com%3A6969","seeders":3,"leechers":3,"uploader":"CoolMohit","files":5,"time":1429709344,"description":"Fast and furious 7 with Eng sub\nThis is my first torrent so plz help me with the mistakes\ntnx...waiting for comments\n\nDirector: James Wan\nWriters: Chris Morgan, Gary Scott Thompson (characters)\nStars: Vin Diesel, Paul Walker, Dwayne Johnson\nGenres: Action | Crime | Thriller\nCountry: Japan | USA\nLanguage: English\n\nVideo\nID : 0\nFormat : MPEG-4 Visual\nFormat profile : Advanced Simple@L5\nFormat settings, BVOP : 2\nFormat settings, QPel : Yes\nFormat settings, GMC : No warppoints\nFormat settings, Matrix : Default (H.263)\nMuxing mode : Packed bitstream\nCodec ID : XVID\nCodec ID/Hint : XviD\nDuration : 2h 8mn\nBit rate : 1 704 Kbps\nWidth : 720 pixels\nHeight : 336 pixels\nDisplay aspect ratio : 2.143\nFrame rate : 25.000 fps\nColor space : YUV\nChroma subsampling : 4:2:0\nBit depth : 8 bits\nScan type : Progressive\nCompression mode : Lossy\nBits/(Pixel*Frame) : 0.282\nStream size : 1.52 GiB (87%)\nWriting library : XviD 1.2.1 (UTC 2008-12-04)\n\nAudio\nID : 1\nFormat : AC-3\nFormat/Info : Audio Coding 3\nMode extension : CM (complete main)\nFormat settings, Endianness : Big\nCodec ID : 2000\nDuration : 2h 8mn\nBit rate mode : Constant\nBit rate : 256 Kbps\nChannel(s) : 2 channels\nChannel positions : Front: L R\nSampling rate : 48.0 KHz\nBit depth : 16 bits\nCompression mode : Lossy\nStream size : 234 MiB (13%)\nAlignment : Split accross interleaves\nInterleave, duration : 40 ms (1.00 video frame)\nInterleave, prelo","torrent":{"xt":"urn:btih:36e1bf1a8d245fc8e2b5d0d6bb3adcf5d940cc21","amp;dn":"Fast+and+Furious+7+with+eng+subtitles","amp;tr":["udp%3A%2F%2Ftracker.openbittorrent.com%3A80","udp%3A%2F%2Fopen.demonii.com%3A1337","udp%3A%2F%2Ftracker.coppersurfer.tk%3A6969","udp%3A%2F%2Fexodus.desync.com%3A6969"],"infoHash":"36e1bf1a8d245fc8e2b5d0d6bb3adcf5d940cc21","infoHashBuffer":{"type":"Buffer","data":[54,225,191,26,141,36,95,200,226,181,208,214,187,58,220,245,217,64,204,33]},"announce":[],"urlList":[]}}